<?xml version="1.0" standalone="no"?>
<!DOCTYPE svg PUBLIC "-//W3C//DTD SVG 20010904//EN"
 "http://www.w3.org/TR/2001/REC-SVG-20010904/DTD/svg10.dtd">
<svg version="1.0" xmlns="http://www.w3.org/2000/svg"
 width="1408.000000pt" height="768.000000pt" viewBox="0 0 1408.000000 768.000000"
 preserveAspectRatio="xMidYMid meet">

<g transform="translate(0.000000,768.000000) scale(0.100000,-0.100000)"
fill="#000000" stroke="none">
<path d="M0 3840 l0 -3840 7040 0 7040 0 0 3840 0 3840 -7040 0 -7040 0 0
-3840z m7490 1871 c148 -43 933 -275 1164 -345 136 -41 253 -79 259 -85 11
-11 -18 -91 -34 -91 -4 0 -149 42 -321 94 -172 52 -405 121 -518 154 -113 33
-299 89 -415 124 l-210 63 -352 3 c-280 2 -363 0 -405 -11 -29 -8 -177 -52
-328 -97 -151 -45 -333 -99 -405 -120 -384 -112 -621 -183 -628 -189 -7 -7 49
-88 187 -273 40 -53 36 -58 -43 -58 l-47 0 -105 143 c-58 78 -122 165 -142
194 l-36 51 27 11 c15 5 119 38 232 71 113 34 264 79 335 100 72 21 308 91
525 155 217 64 400 118 405 120 6 2 186 4 400 4 355 1 396 -1 455 -18z m305
-391 c397 -34 682 -95 1180 -255 425 -136 514 -155 739 -155 127 0 138 -1 133
-17 -3 -10 -13 -47 -23 -83 -19 -71 -20 -68 42 -294 13 -49 14 -70 5 -115 -15
-74 -71 -188 -121 -242 l-40 -44 35 74 c45 97 69 207 61 278 -10 82 -16 89
-87 97 -35 4 -81 17 -103 28 -47 23 -176 126 -176 139 0 5 65 9 143 9 l144 0
16 41 16 41 -472 -4 c-470 -4 -472 -4 -568 -30 -181 -49 -247 -94 -459 -308
-156 -158 -237 -217 -365 -265 -76 -29 -198 -55 -248 -54 -26 0 -18 5 38 23
223 73 377 185 569 416 174 210 280 284 481 335 l89 23 -69 35 c-79 39 -208
87 -233 87 -10 -1 -57 -52 -107 -118 -233 -302 -370 -447 -506 -540 -175 -118
-337 -177 -594 -217 -126 -20 -664 -36 -880 -27 l-160 7 100 8 c437 34 800 80
965 122 279 70 449 163 644 353 74 73 373 435 376 457 4 28 -549 115 -730 115
l-47 0 -43 -167 c-23 -93 -44 -178 -47 -190 -6 -28 -17 -27 316 -13 128 6 236
8 240 4 10 -10 -73 -73 -104 -79 -16 -2 -293 -14 -615 -25 -1566 -55 -2011
-77 -2205 -111 -114 -20 -344 -79 -462 -120 -128 -44 -372 -159 -394 -185 -10
-12 -13 -41 -11 -106 3 -83 2 -90 -15 -86 -15 3 -20 21 -32 106 -17 123 -20
118 115 198 173 103 404 192 634 243 220 49 375 69 754 97 249 18 208 5 472
150 427 234 661 324 914 353 58 7 114 14 125 15 53 8 464 5 570 -4z m1156
-704 c195 -42 344 -198 373 -391 l6 -40 -14 36 c-47 122 -101 191 -194 252
-94 62 -158 81 -267 81 -198 0 -361 -101 -442 -274 -20 -44 -38 -78 -40 -77
-6 7 31 126 54 171 30 60 113 149 168 182 112 65 233 86 356 60z m-1536 -2
c-11 -2 -175 -17 -365 -34 -190 -17 -412 -37 -495 -45 -82 -8 -266 -24 -407
-36 -142 -12 -262 -25 -268 -29 -8 -5 -2 -27 19 -69 30 -58 61 -157 61 -191 0
-8 -18 22 -41 68 -31 63 -59 102 -117 161 -42 43 -88 85 -102 94 l-25 16 40 0
c34 1 680 28 1390 60 196 8 345 11 310 5z m-1983 -64 c147 -55 261 -192 293
-350 5 -26 -3 -16 -29 38 -85 173 -240 272 -427 272 -183 0 -341 -97 -424
-262 -28 -54 -35 -64 -30 -38 36 174 167 311 340 357 72 18 206 10 277 -17z
m-647 -79 c-123 -112 -151 -132 -199 -146 -81 -23 -217 -37 -233 -24 -21 18
-15 45 15 58 131 61 456 148 417 112z m4118 -57 c7 -22 18 -34 44 -43 31 -12
37 -11 57 8 29 27 38 26 75 -5 30 -25 30 -26 15 -55 -14 -28 -13 -32 6 -60 19
-26 26 -29 54 -23 31 5 34 4 50 -37 18 -44 18 -44 -26 -70 -12 -7 -18 -22 -18
-49 0 -33 5 -42 30 -57 35 -20 35 -22 16 -68 -13 -30 -20 -35 -50 -35 -39 0
-82 -42 -70 -69 19 -46 16 -60 -17 -80 -33 -20 -33 -20 -54 -1 -39 37 -101 17
-111 -37 -6 -31 -8 -33 -49 -33 -41 0 -43 1 -49 35 -5 25 -15 39 -36 50 -16 8
-33 22 -37 30 -5 8 -44 56 -88 105 l-79 90 -66 0 -65 -1 -18 -38 c-34 -74
-125 -85 -196 -26 -24 21 -40 25 -90 25 -34 0 -61 -4 -61 -8 0 -5 14 -29 31
-55 34 -52 103 -102 163 -118 90 -24 202 16 254 91 15 22 29 39 33 40 3 0 20
-15 38 -34 l33 -34 -22 -32 c-22 -31 -22 -33 -6 -66 9 -19 16 -38 16 -43 0 -5
-18 -21 -40 -36 l-41 -28 -33 33 c-34 32 -34 32 -78 18 -39 -13 -44 -19 -52
-56 l-9 -42 -48 0 c-53 0 -69 15 -69 64 0 20 -9 29 -47 46 -28 12 -53 18 -59
13 -6 -4 -23 -17 -38 -27 l-27 -19 -37 37 -37 36 22 39 22 39 -27 51 c-21 40
-35 53 -62 62 -19 6 -44 14 -55 19 -11 5 -362 11 -780 14 -418 3 -875 10
-1015 15 -140 6 -392 15 -560 21 -168 5 -408 15 -535 20 -126 5 -345 13 -485
17 -511 16 -48 20 2113 22 l2147 1 0 -40 c0 -25 -5 -40 -12 -40 -26 0 -88 -21
-88 -30 0 -18 65 -83 97 -96 71 -30 169 -11 226 44 119 113 84 314 -65 376
-90 38 -212 3 -267 -76 -49 -68 -48 -68 -112 -68 -69 0 -78 10 -55 64 13 32
19 36 47 34 24 -2 36 3 52 24 18 24 19 30 7 59 -13 30 -12 33 16 55 33 27 62
31 70 10 9 -23 33 -27 70 -11 25 10 34 20 34 38 0 33 8 38 54 35 35 -3 41 -7
49 -34z m-2460 -581 c88 -84 300 -258 480 -393 l97 -73 41 29 c50 34 236 184
344 276 l80 68 73 0 c41 0 72 -4 70 -9 -11 -28 -356 -316 -569 -474 l-36 -27
-174 131 c-191 145 -290 226 -479 395 -177 157 -172 148 -72 142 l83 -5 62
-60z m1433 30 c9 -16 25 -34 33 -41 13 -11 1 -12 -74 -7 -49 2 -175 9 -280 15
-487 25 -940 52 -944 56 -2 2 277 4 621 4 l626 0 18 -27z m5673 -3129 c27 -63
90 -123 156 -151 25 -10 45 -20 45 -23 0 -3 -25 -16 -56 -29 -63 -27 -123 -90
-151 -156 -10 -25 -20 -45 -23 -45 -3 0 -16 25 -29 56 -27 63 -90 123 -156
151 -25 10 -45 20 -45 23 0 3 25 16 56 29 63 27 123 90 151 156 10 25 20 45
23 45 3 0 16 -25 29 -56z"/>
<path d="M7165 5230 c-285 -30 -577 -144 -941 -365 l-109 -67 91 5 92 4 62 52
c72 60 95 71 150 71 43 0 54 -10 45 -40 -4 -14 -26 -26 -75 -40 -96 -29 -102
-45 -14 -37 38 3 265 14 504 23 239 9 438 19 441 23 3 3 29 83 57 176 28 94
54 178 57 188 7 16 -4 17 -141 16 -82 -1 -180 -5 -219 -9z"/>
</g>
</svg>
